<svg width="121" height="19" viewBox="0 0 121 19" fill="none" xmlns="http://www.w3.org/2000/svg">
<path d="M6.37853 8.92997H12.309L11.3991 8.19135V6.5L14.0859 8.7587V10.2145H6.37853V8.92997Z" fill="#03BDB8"/>
<path d="M6.37853 10.07H12.309L11.3991 10.8087V12.5L14.0859 10.2413V8.78546H6.37853V10.07Z" fill="#03BDB8"/>
<path d="M21.5439 16.018V4.786H25.4679C26.4279 4.786 27.2379 4.852 27.8979 4.984C28.5579 5.104 29.1159 5.278 29.5719 5.506C30.0279 5.734 30.4419 6.016 30.8139 6.352C31.1859 6.688 31.4979 7.066 31.7499 7.486C32.0019 7.894 32.1879 8.344 32.3079 8.836C32.4399 9.328 32.5059 9.868 32.5059 10.456C32.4699 11.32 32.3079 12.1 32.0199 12.796C31.7439 13.48 31.3119 14.062 30.7239 14.542C30.1479 15.01 29.3979 15.376 28.4739 15.64C27.5619 15.892 26.4519 16.018 25.1439 16.018H21.5439ZM22.9659 14.884H25.0539C26.3979 14.884 27.5139 14.722 28.4019 14.398C29.2899 14.074 29.9559 13.588 30.3999 12.94C30.8439 12.292 31.0599 11.488 31.0479 10.528C31.0479 9.544 30.8319 8.716 30.3999 8.044C29.9799 7.372 29.3499 6.862 28.5099 6.514C27.6699 6.154 26.6199 5.974 25.3599 5.974H22.9659V14.884ZM35.6739 16V14.794H39.3099V5.974H35.8719V4.786H44.2959V5.974H40.7679V14.812H44.4579V16H35.6739ZM53.7639 16.18C52.6719 16.18 51.6879 16.06 50.8119 15.82C49.9359 15.58 49.1619 15.226 48.4899 14.758L49.2999 13.624L49.4079 13.48L49.5159 13.552C49.5279 13.648 49.5579 13.732 49.6059 13.804C49.6659 13.876 49.7739 13.972 49.9299 14.092C50.4099 14.368 50.9979 14.578 51.6939 14.722C52.3899 14.866 53.1699 14.938 54.0339 14.938C54.5379 14.938 55.0179 14.896 55.4739 14.812C55.9419 14.716 56.3619 14.584 56.7339 14.416C57.1059 14.248 57.3999 14.05 57.6159 13.822C57.8319 13.582 57.9399 13.324 57.9399 13.048C57.9399 12.832 57.8919 12.646 57.7959 12.49C57.6999 12.322 57.5439 12.172 57.3279 12.04C57.1239 11.896 56.8539 11.758 56.5179 11.626C56.1939 11.494 55.7919 11.356 55.3119 11.212C54.8319 11.056 54.2799 10.888 53.6559 10.708C52.4799 10.408 51.5559 10.09 50.8839 9.754C50.2119 9.406 49.7319 9.04 49.4439 8.656C49.1679 8.26 49.0299 7.846 49.0299 7.414C49.0299 6.85 49.2339 6.364 49.6419 5.956C50.0499 5.536 50.6319 5.212 51.3879 4.984C52.1559 4.756 53.0679 4.642 54.1239 4.642C54.7359 4.642 55.3299 4.696 55.9059 4.804C56.4819 4.912 57.0159 5.068 57.5079 5.272C58.0119 5.476 58.4559 5.734 58.8399 6.046L58.0299 7.054L57.9039 7.198L57.8139 7.108C57.8019 7.012 57.7659 6.934 57.7059 6.874C57.6459 6.802 57.5439 6.712 57.3999 6.604C56.9199 6.328 56.3799 6.13 55.7799 6.01C55.1799 5.89 54.5319 5.83 53.8359 5.83C53.3919 5.83 52.9659 5.866 52.5579 5.938C52.1619 5.998 51.8079 6.1 51.4959 6.244C51.1959 6.376 50.9559 6.532 50.7759 6.712C50.5959 6.892 50.5059 7.096 50.5059 7.324C50.5059 7.504 50.5599 7.678 50.6679 7.846C50.7759 8.014 50.9379 8.176 51.1539 8.332C51.3819 8.488 51.6759 8.644 52.0359 8.8C52.3959 8.956 52.8279 9.112 53.3319 9.268C53.8479 9.424 54.4479 9.592 55.1319 9.772C55.9599 10 56.6439 10.228 57.1839 10.456C57.7359 10.672 58.1679 10.906 58.4799 11.158C58.8039 11.398 59.0319 11.668 59.1639 11.968C59.3079 12.256 59.3799 12.58 59.3799 12.94C59.3799 13.468 59.1819 13.984 58.7859 14.488C58.4019 14.98 57.7959 15.388 56.9679 15.712C56.1399 16.024 55.0719 16.18 53.7639 16.18ZM68.2719 16.18C67.3359 16.18 66.4719 16.06 65.6799 15.82C64.8879 15.58 64.1979 15.22 63.6099 14.74C63.0339 14.26 62.5839 13.666 62.2599 12.958C61.9359 12.238 61.7739 11.404 61.7739 10.456C61.7739 9.592 61.8939 8.836 62.1339 8.188C62.3859 7.54 62.7219 6.994 63.1419 6.55C63.5739 6.106 64.0599 5.752 64.5999 5.488C65.1519 5.212 65.7339 5.014 66.3459 4.894C66.9579 4.762 67.5639 4.696 68.1639 4.696C69.3879 4.696 70.4319 4.9 71.2959 5.308C72.1599 5.704 72.8079 6.238 73.2399 6.91L72.1059 7.54L71.9439 7.63L71.8899 7.504C71.9139 7.408 71.9019 7.33 71.8539 7.27C71.8059 7.198 71.7159 7.09 71.5839 6.946C71.1159 6.514 70.5879 6.226 69.9999 6.082C69.4239 5.938 68.7939 5.866 68.1099 5.866C67.4619 5.866 66.8439 5.956 66.2559 6.136C65.6679 6.304 65.1459 6.574 64.6899 6.946C64.2339 7.318 63.8739 7.786 63.6099 8.35C63.3579 8.914 63.2319 9.586 63.2319 10.366C63.2319 11.11 63.3579 11.77 63.6099 12.346C63.8739 12.91 64.2339 13.39 64.6899 13.786C65.1459 14.17 65.6739 14.464 66.2739 14.668C66.8739 14.872 67.5159 14.974 68.1999 14.974C68.6439 14.974 69.0999 14.92 69.5679 14.812C70.0479 14.704 70.4919 14.548 70.8999 14.344C71.3079 14.14 71.6379 13.9 71.8899 13.624L73.0059 14.344C72.4659 14.944 71.8179 15.4 71.0619 15.712C70.3059 16.024 69.3759 16.18 68.2719 16.18ZM80.8359 16.198C79.5879 16.198 78.5139 15.97 77.6139 15.514C76.7139 15.046 76.0239 14.386 75.5439 13.534C75.0639 12.67 74.8239 11.644 74.8239 10.456C74.8239 9.292 75.0639 8.284 75.5439 7.432C76.0239 6.568 76.7139 5.902 77.6139 5.434C78.5139 4.954 79.5879 4.714 80.8359 4.714C82.0959 4.714 83.1759 4.954 84.0759 5.434C84.9759 5.902 85.6659 6.568 86.1459 7.432C86.6259 8.284 86.8659 9.292 86.8659 10.456C86.8659 11.644 86.6259 12.67 86.1459 13.534C85.6659 14.386 84.9759 15.046 84.0759 15.514C83.1759 15.97 82.0959 16.198 80.8359 16.198ZM80.8359 14.974C81.7599 14.974 82.5579 14.8 83.2299 14.452C83.9139 14.092 84.4419 13.576 84.8139 12.904C85.1859 12.232 85.3719 11.416 85.3719 10.456C85.3719 9.532 85.1859 8.734 84.8139 8.062C84.4419 7.39 83.9139 6.868 83.2299 6.496C82.5579 6.112 81.7599 5.92 80.8359 5.92C79.9239 5.92 79.1259 6.112 78.4419 6.496C77.7699 6.868 77.2479 7.39 76.8759 8.062C76.5039 8.734 76.3179 9.532 76.3179 10.456C76.3179 11.416 76.5039 12.232 76.8759 12.904C77.2479 13.576 77.7699 14.092 78.4419 14.452C79.1259 14.8 79.9239 14.974 80.8359 14.974ZM89.0979 16V4.786H94.7859C95.8779 4.786 96.7839 4.918 97.5039 5.182C98.2239 5.446 98.7639 5.818 99.1239 6.298C99.4839 6.778 99.6639 7.342 99.6639 7.99C99.6639 8.482 99.5199 8.944 99.2319 9.376C98.9439 9.808 98.5419 10.168 98.0259 10.456C97.5099 10.744 96.9099 10.93 96.2259 11.014L100.114 16H98.2779L94.5519 11.104H90.5739V16H89.0979ZM90.5739 9.88H94.9119C96.0519 9.88 96.8799 9.712 97.3959 9.376C97.9239 9.04 98.1879 8.578 98.1879 7.99C98.1879 7.618 98.0739 7.288 97.8459 7C97.6179 6.7 97.2519 6.466 96.7479 6.298C96.2559 6.13 95.6139 6.046 94.8219 6.046H90.5739V9.88ZM102.544 16.018V4.786H106.468C107.428 4.786 108.238 4.852 108.898 4.984C109.558 5.104 110.116 5.278 110.572 5.506C111.028 5.734 111.442 6.016 111.814 6.352C112.186 6.688 112.498 7.066 112.75 7.486C113.002 7.894 113.188 8.344 113.308 8.836C113.44 9.328 113.506 9.868 113.506 10.456C113.47 11.32 113.308 12.1 113.02 12.796C112.744 13.48 112.312 14.062 111.724 14.542C111.148 15.01 110.398 15.376 109.474 15.64C108.562 15.892 107.452 16.018 106.144 16.018H102.544ZM103.966 14.884H106.054C107.398 14.884 108.514 14.722 109.402 14.398C110.29 14.074 110.956 13.588 111.4 12.94C111.844 12.292 112.06 11.488 112.048 10.528C112.048 9.544 111.832 8.716 111.4 8.044C110.98 7.372 110.35 6.862 109.51 6.514C108.67 6.154 107.62 5.974 106.36 5.974H103.966V14.884Z" fill="#03BDB8"/>
</svg>
