<?xml version="1.0" encoding="utf-8"?>
<!-- Generator: Adobe Illustrator 26.0.2, SVG Export Plug-In . SVG Version: 6.00 Build 0)  -->
<svg version="1.1" id="Layer_1" xmlns="http://www.w3.org/2000/svg" xmlns:xlink="http://www.w3.org/1999/xlink" x="0px" y="0px"
	 viewBox="0 0 1920 1080" style="enable-background:new 0 0 1920 1080;" xml:space="preserve">
<style type="text/css">
	.st0{opacity:0.5;fill:#FFFFFF;enable-background:new    ;}
	.st1{fill:#FFFFFF;}
	.st2{opacity:0.25;fill:#FFFFFF;enable-background:new    ;}
	.st3{opacity:0.9;fill:#FFFFFF;enable-background:new    ;}
	.st4{opacity:0.8;fill:#FFFFFF;enable-background:new    ;}
	.st5{opacity:0.7;fill:#FFFFFF;enable-background:new    ;}
	.st6{opacity:0.6;fill:#FFFFFF;enable-background:new    ;}
	.st7{opacity:0.5;}
	.st8{opacity:0.25;}
</style>
<g>
	<g>
		<rect x="727.71" y="1005.3" class="st0" width="734" height="3"/>
		<g>
			<g>
				<polygon class="st1" points="1524.63,1006.53 1577.08,1006.53 1558.75,1024.86 1524.63,1024.86 				"/>
				<polygon class="st1" points="1599.77,1006.53 1622.08,1006.53 1603.76,1024.86 1581.43,1024.86 				"/>
				<polygon class="st1" points="1644.76,1006.53 1667.57,1006.53 1649.23,1024.86 1626.44,1024.86 				"/>
				<polygon class="st1" points="1847.91,1006.53 1847.91,1024.86 1671.92,1024.86 1690.25,1006.53 				"/>
				<polygon class="st1" points="1847.91,912.25 1847.91,1024.86 1829.58,1024.86 1829.58,1006.53 1838.74,1006.53 1838.74,912.25 
									"/>
				<rect x="1829.58" y="912.25" class="st0" width="9.17" height="94.28"/>
			</g>
			<g>
				<polygon class="st1" points="260.78,953.77 475.01,953.77 462.22,966.55 260.78,966.55 				"/>
				<polygon class="st1" points="491.7,953.77 524.42,953.77 511.63,966.55 478.92,966.55 				"/>
				<polygon class="st1" points="541.11,953.77 574.59,953.77 561.8,966.55 528.33,966.55 				"/>
				<polygon class="st1" points="591.28,953.77 1145.41,953.77 1132.63,966.55 578.49,966.55 				"/>
				<polygon class="st1" points="1162.11,953.77 1195.58,953.77 1182.79,966.55 1149.32,966.55 				"/>
				<polygon class="st1" points="1212.27,953.77 1244.99,953.77 1232.2,966.55 1199.48,966.55 				"/>
				<polygon class="st1" points="1463.13,953.77 1463.13,966.55 1248.89,966.55 1261.68,953.77 				"/>
				<polygon class="st2" points="260.78,940.98 487.8,940.98 475.01,953.77 260.78,953.77 				"/>
				<polygon class="st2" points="504.49,940.98 537.21,940.98 524.42,953.77 491.7,953.77 				"/>
				<polygon class="st2" points="553.9,940.98 587.38,940.98 574.59,953.77 541.11,953.77 				"/>
				<polygon class="st2" points="604.07,940.98 1158.2,940.98 1145.41,953.77 591.28,953.77 				"/>
				<polygon class="st2" points="1174.89,940.98 1208.37,940.98 1195.58,953.77 1162.11,953.77 				"/>
				<polygon class="st2" points="1225.06,940.98 1257.78,940.98 1244.99,953.77 1212.27,953.77 				"/>
				<polygon class="st2" points="1463.13,940.98 1463.13,953.77 1261.68,953.77 1274.47,940.98 				"/>
			</g>
			<g>
				<rect x="72.49" y="849.05" class="st1" width="16.1" height="167.46"/>
				<rect x="101.31" y="877.09" class="st3" width="16.1" height="139.43"/>
				<rect x="130.12" y="917.07" class="st4" width="16.1" height="99.44"/>
				<rect x="158.94" y="950.82" class="st5" width="16.1" height="65.69"/>
				<rect x="187.76" y="983.67" class="st6" width="16.1" height="32.85"/>
			</g>
			<g>
				<g>
					<polygon class="st1" points="124.65,123.32 135.71,82.01 146.46,84.89 133.73,132.4 					"/>
					<polygon class="st1" points="124.65,123.32 83.34,134.39 86.22,145.14 133.73,132.4 					"/>
				</g>
				<g class="st7">
					<polygon class="st1" points="105.51,104.19 114.51,70.58 123.26,72.93 112.9,111.58 					"/>
					<polygon class="st1" points="105.51,104.19 71.91,113.19 74.25,121.93 112.9,111.58 					"/>
				</g>
				<g class="st8">
					<polygon class="st1" points="90.12,88.79 96.35,65.53 102.4,67.16 95.24,93.91 					"/>
					<polygon class="st1" points="90.12,88.79 66.86,95.03 68.48,101.08 95.24,93.91 					"/>
				</g>
			</g>
			<g>
				<g>
					<path class="st2" d="M1271.23,149.79h-2.56l87.23-87.23h497.23l-87.22,87.22L1271.23,149.79z M1356.78,64.68l-82.99,82.99
						l491.25-0.01l82.98-82.98H1356.78z"/>
					<path class="st0" d="M1284.03,143.43l74.51-74.51h479.24l-74.5,74.5L1284.03,143.43z M1360.01,72.46l-67.44,67.44l469.25-0.01
						l67.43-67.43H1360.01z"/>
					<polygon class="st1" points="1769.86,157.54 1636.59,157.54 1636.59,154.01 1768.39,154.01 1824.9,97.5 1827.4,100 					"/>
					<polygon class="st1" points="1297.4,115.18 1294.9,112.68 1352.44,55.14 1485.71,55.14 1485.71,58.67 1353.91,58.67 					"/>
				</g>
			</g>
			<g>
				<polygon class="st1" points="1655.9,918.71 1655.9,985.39 1640.76,985.39 1640.76,932.61 1621.32,932.61 1621.32,918.71 				"/>
				<path class="st1" d="M1601.57,952.05v-33.33h-54.88v66.67h14.28v-18.24h40.6v18.24h14.27v-33.34L1601.57,952.05L1601.57,952.05z
					 M1587.21,952.05h-25.93v-19.43h25.93V952.05z"/>
				<g>
					<polygon class="st1" points="1751.82,932.61 1751.82,947.59 1806.37,947.59 1806.37,961.49 1751.82,961.49 1751.82,971.48 
						1806.37,971.48 1806.37,985.39 1737.22,985.39 1737.22,918.72 1806.37,918.72 1806.37,932.61 					"/>
				</g>
				<g>
					<polygon class="st1" points="1676.62,932.61 1676.62,947.87 1731.18,947.87 1731.18,985.39 1662.02,985.39 1662.02,971.48 
						1716.58,971.48 1716.58,961.77 1662.02,961.77 1662.02,918.72 1731.18,918.72 1731.18,932.61 					"/>
				</g>
			</g>
		</g>
	</g>
	<g>
		<path class="st1" d="M1465.71,86.95l-14,38.46h-5.56l-9.99-27.3c-3.26,8.98-6.79,18.38-9.99,27.3h-5.5l-14-38.46h7.48l9.29,25.37
			l9.3-25.37h6.89l9.3,25.37l9.29-25.37C1458.22,86.95,1465.71,86.95,1465.71,86.95z"/>
		<path class="st1" d="M1499.59,86.95c4.11,0,7.48,3.31,7.48,7.43v31.04h-7.1v-12.93h-24.31v12.93h-7.05V94.37
			c0-4.11,3.31-7.43,7.43-7.43L1499.59,86.95L1499.59,86.95z M1499.96,105.43V94.37c0-0.21-0.16-0.37-0.37-0.37h-23.56
			c-0.21,0-0.37,0.16-0.37,0.37v11.06H1499.96z"/>
		<path class="st1" d="M1551.57,104.79c0,4.06-3.37,7.43-7.48,7.43H1542l9.56,11.38v1.82h-7.69l-11.11-13.19h-12.45h-0.16v13.19
			h-7.05V87h30.98c4.11,0,7.48,3.37,7.48,7.43L1551.57,104.79L1551.57,104.79z M1544.09,105.16c0.21,0,0.37-0.16,0.37-0.37V94.42
			c0-0.21-0.16-0.37-0.37-0.37h-23.56c-0.21,0-0.37,0.16-0.37,0.37v10.36c0,0.21,0.16,0.37,0.37,0.37h23.56V105.16z"/>
		<path class="st1" d="M1588.59,86.95h7.11v38.46h-7.7l-23.72-28.21v28.21h-7.05V86.95h7.69l23.67,28.21V86.95z"/>
		<path class="st1" d="M1601.73,86.95h7.05v38.46h-7.05V86.95z"/>
		<path class="st1" d="M1644.79,86.95h7.11v38.46h-7.69l-23.72-28.21v28.21h-7.05V86.95h7.69l23.67,28.21V86.95H1644.79z"/>
		<path class="st1" d="M1696.34,97.36h-7.11v-2.99c0-0.21-0.16-0.37-0.37-0.37h-23.56c-0.21,0-0.37,0.16-0.37,0.37v23.61
			c0,0.21,0.16,0.37,0.37,0.37h23.56c0.21,0,0.37-0.16,0.37-0.37v-7.27h-8.71v-7.05h15.81v14.32c0,4.11-3.37,7.43-7.48,7.43h-23.56
			c-4.11,0-7.43-3.31-7.43-7.43V94.37c0-4.11,3.31-7.43,7.43-7.43h23.56c4.11,0,7.48,3.31,7.48,7.43L1696.34,97.36L1696.34,97.36z"
			/>
	</g>
</g>
</svg>
