<svg width="121" height="19" viewBox="0 0 121 19" fill="none" xmlns="http://www.w3.org/2000/svg">
<path d="M6.37853 8.92997H12.309L11.3991 8.19135V6.5L14.0859 8.7587V10.2145H6.37853V8.92997Z" fill="#03BDB8"/>
<path d="M6.37853 10.07H12.309L11.3991 10.8087V12.5L14.0859 10.2413V8.78546H6.37853V10.07Z" fill="#03BDB8"/>
<path d="M26.8359 16.198C25.5879 16.198 24.5139 15.97 23.6139 15.514C22.7139 15.046 22.0239 14.386 21.5439 13.534C21.0639 12.67 20.8239 11.644 20.8239 10.456C20.8239 9.292 21.0639 8.284 21.5439 7.432C22.0239 6.568 22.7139 5.902 23.6139 5.434C24.5139 4.954 25.5879 4.714 26.8359 4.714C28.0959 4.714 29.1759 4.954 30.0759 5.434C30.9759 5.902 31.6659 6.568 32.1459 7.432C32.6259 8.284 32.8659 9.292 32.8659 10.456C32.8659 11.644 32.6259 12.67 32.1459 13.534C31.6659 14.386 30.9759 15.046 30.0759 15.514C29.1759 15.97 28.0959 16.198 26.8359 16.198ZM26.8359 14.974C27.7599 14.974 28.5579 14.8 29.2299 14.452C29.9139 14.092 30.4419 13.576 30.8139 12.904C31.1859 12.232 31.3719 11.416 31.3719 10.456C31.3719 9.532 31.1859 8.734 30.8139 8.062C30.4419 7.39 29.9139 6.868 29.2299 6.496C28.5579 6.112 27.7599 5.92 26.8359 5.92C25.9239 5.92 25.1259 6.112 24.4419 6.496C23.7699 6.868 23.2479 7.39 22.8759 8.062C22.5039 8.734 22.3179 9.532 22.3179 10.456C22.3179 11.416 22.5039 12.232 22.8759 12.904C23.2479 13.576 23.7699 14.092 24.4419 14.452C25.1259 14.8 25.9239 14.974 26.8359 14.974ZM35.1879 16V4.786H40.9479C42.1119 4.786 43.0539 4.93 43.7739 5.218C44.5059 5.506 45.0399 5.89 45.3759 6.37C45.7239 6.838 45.8979 7.366 45.8979 7.954C45.8979 8.386 45.8019 8.794 45.6099 9.178C45.4299 9.55 45.1419 9.886 44.7459 10.186C44.3619 10.474 43.8639 10.702 43.2519 10.87C42.6519 11.026 41.9259 11.104 41.0739 11.104H36.6639V16H35.1879ZM36.6639 9.88H40.8579C41.7459 9.88 42.4479 9.802 42.9639 9.646C43.4799 9.49 43.8519 9.274 44.0799 8.998C44.3079 8.71 44.4219 8.374 44.4219 7.99C44.4219 7.618 44.3079 7.288 44.0799 7C43.8519 6.712 43.4799 6.484 42.9639 6.316C42.4479 6.136 41.7579 6.046 40.8939 6.046H36.6639V9.88ZM48.5979 16V4.768H59.0919V5.992H50.0199V9.52H57.5979V10.762H50.0199V14.776H59.0019V16H48.5979ZM61.8999 4.786H63.3579L71.2599 13.426V4.786H72.6639H72.8619V4.912C72.7899 4.984 72.7419 5.062 72.7179 5.146C72.7059 5.23 72.6999 5.374 72.6999 5.578V16H71.5839L63.3399 6.856V16H61.8999V4.786ZM80.7639 16.18C79.6719 16.18 78.6879 16.06 77.8119 15.82C76.9359 15.58 76.1619 15.226 75.4899 14.758L76.2999 13.624L76.4079 13.48L76.5159 13.552C76.5279 13.648 76.5579 13.732 76.6059 13.804C76.6659 13.876 76.7739 13.972 76.9299 14.092C77.4099 14.368 77.9979 14.578 78.6939 14.722C79.3899 14.866 80.1699 14.938 81.0339 14.938C81.5379 14.938 82.0179 14.896 82.4739 14.812C82.9419 14.716 83.3619 14.584 83.7339 14.416C84.1059 14.248 84.3999 14.05 84.6159 13.822C84.8319 13.582 84.9399 13.324 84.9399 13.048C84.9399 12.832 84.8919 12.646 84.7959 12.49C84.6999 12.322 84.5439 12.172 84.3279 12.04C84.1239 11.896 83.8539 11.758 83.5179 11.626C83.1939 11.494 82.7919 11.356 82.3119 11.212C81.8319 11.056 81.2799 10.888 80.6559 10.708C79.4799 10.408 78.5559 10.09 77.8839 9.754C77.2119 9.406 76.7319 9.04 76.4439 8.656C76.1679 8.26 76.0299 7.846 76.0299 7.414C76.0299 6.85 76.2339 6.364 76.6419 5.956C77.0499 5.536 77.6319 5.212 78.3879 4.984C79.1559 4.756 80.0679 4.642 81.1239 4.642C81.7359 4.642 82.3299 4.696 82.9059 4.804C83.4819 4.912 84.0159 5.068 84.5079 5.272C85.0119 5.476 85.4559 5.734 85.8399 6.046L85.0299 7.054L84.9039 7.198L84.8139 7.108C84.8019 7.012 84.7659 6.934 84.7059 6.874C84.6459 6.802 84.5439 6.712 84.3999 6.604C83.9199 6.328 83.3799 6.13 82.7799 6.01C82.1799 5.89 81.5319 5.83 80.8359 5.83C80.3919 5.83 79.9659 5.866 79.5579 5.938C79.1619 5.998 78.8079 6.1 78.4959 6.244C78.1959 6.376 77.9559 6.532 77.7759 6.712C77.5959 6.892 77.5059 7.096 77.5059 7.324C77.5059 7.504 77.5599 7.678 77.6679 7.846C77.7759 8.014 77.9379 8.176 78.1539 8.332C78.3819 8.488 78.6759 8.644 79.0359 8.8C79.3959 8.956 79.8279 9.112 80.3319 9.268C80.8479 9.424 81.4479 9.592 82.1319 9.772C82.9599 10 83.6439 10.228 84.1839 10.456C84.7359 10.672 85.1679 10.906 85.4799 11.158C85.8039 11.398 86.0319 11.668 86.1639 11.968C86.3079 12.256 86.3799 12.58 86.3799 12.94C86.3799 13.468 86.1819 13.984 85.7859 14.488C85.4019 14.98 84.7959 15.388 83.9679 15.712C83.1399 16.024 82.0719 16.18 80.7639 16.18ZM89.0979 16V4.768H99.5919V5.992H90.5199V9.52H98.0979V10.762H90.5199V14.776H99.5019V16H89.0979ZM111.166 12.796H104.344L105.01 11.662H110.626L111.166 12.796ZM107.818 7.234L103.066 16H101.518L107.728 4.588H107.944L114.154 16H112.534L107.818 7.234Z" fill="#03BDB8"/>
</svg>
