<svg width="121" height="19" viewBox="0 0 121 19" fill="none" xmlns="http://www.w3.org/2000/svg">
<path d="M6.37853 8.92997H12.309L11.3991 8.19135V6.5L14.0859 8.7587V10.2145H6.37853V8.92997Z" fill="#03BDB8"/>
<path d="M6.37853 10.07H12.309L11.3991 10.8087V12.5L14.0859 10.2413V8.78546H6.37853V10.07Z" fill="#03BDB8"/>
<path d="M25.9359 16V5.992H20.8779V4.768H32.6499V5.992H27.3939V16H25.9359ZM36.8439 16L34.0539 4.786H35.4939L37.4559 12.976L40.3539 5.614H40.8759L43.5399 12.976L45.4659 4.786H46.7619L44.0079 16H43.3599L40.5519 8.386L37.5279 16H36.8439ZM49.1739 16V14.794H52.8099V5.974H49.3719V4.786H57.7959V5.974H54.2679V14.812H57.9579V16H49.1739ZM66.4359 16V5.992H61.3779V4.768H73.1499V5.992H67.8939V16H66.4359ZM79.9359 16V5.992H74.8779V4.768H86.6499V5.992H81.3939V16H79.9359ZM89.0979 16V4.768H99.5919V5.992H90.5199V9.52H98.0979V10.762H90.5199V14.776H99.5019V16H89.0979ZM102.598 16V4.786H108.286C109.378 4.786 110.284 4.918 111.004 5.182C111.724 5.446 112.264 5.818 112.624 6.298C112.984 6.778 113.164 7.342 113.164 7.99C113.164 8.482 113.02 8.944 112.732 9.376C112.444 9.808 112.042 10.168 111.526 10.456C111.01 10.744 110.41 10.93 109.726 11.014L113.614 16H111.778L108.052 11.104H104.074V16H102.598ZM104.074 9.88H108.412C109.552 9.88 110.38 9.712 110.896 9.376C111.424 9.04 111.688 8.578 111.688 7.99C111.688 7.618 111.574 7.288 111.346 7C111.118 6.7 110.752 6.466 110.248 6.298C109.756 6.13 109.114 6.046 108.322 6.046H104.074V9.88Z" fill="#03BDB8"/>
</svg>
